<?xml version="1.0" standalone="no"?>
<!DOCTYPE svg PUBLIC "-//W3C//DTD SVG 20010904//EN"
 "http://www.w3.org/TR/2001/REC-SVG-20010904/DTD/svg10.dtd">
<svg version="1.0" xmlns="http://www.w3.org/2000/svg"
 width="960.000000pt" height="960.000000pt" viewBox="0 0 960.000000 960.000000"
 preserveAspectRatio="xMidYMid meet">

<g transform="translate(0.000000,960.000000) scale(0.100000,-0.100000)"
fill="#000000" stroke="none">
<path d="M940 7436 c-115 -31 -202 -102 -252 -204 l-33 -67 -3 -2340 c-2
-2321 -2 -2341 18 -2405 37 -120 128 -212 249 -250 63 -20 88 -20 3875 -20
3400 0 3818 2 3871 15 110 29 207 112 257 221 l23 49 0 2365 0 2365 -26 55
c-41 85 -99 144 -187 187 l-76 38 -3835 2 c-3030 1 -3845 -1 -3881 -11z m7723
-256 c19 -16 40 -42 46 -57 8 -21 11 -632 9 -2335 l-3 -2307 -21 -27 c-11 -15
-33 -37 -48 -48 l-27 -21 -3808 -3 -3808 -2 -43 23 c-25 13 -50 37 -61 57 -18
34 -19 114 -19 2333 0 2514 -4 2336 59 2390 l33 27 3828 0 3829 0 34 -30z"/>
<path d="M1152 6980 c-67 -41 -62 122 -62 -2187 0 -2062 0 -2099 20 -2130 10
-18 31 -39 45 -49 24 -15 270 -16 3642 -15 3358 2 3619 3 3645 19 16 9 37 35
48 57 20 41 20 69 19 2126 0 1587 -3 2092 -12 2119 -7 19 -27 44 -46 57 l-34
23 -3616 0 c-3609 0 -3616 0 -3649 -20z m7128 -2180 l0 -1970 -2968 0 c-1633
0 -3199 -3 -3480 -7 l-512 -6 0 1976 0 1977 3480 0 3480 0 0 -1970z"/>
<path d="M7472 6437 c-9 -10 5 -29 59 -83 39 -38 75 -80 80 -93 22 -55 -41
-141 -103 -141 -24 0 -46 15 -109 76 -47 46 -84 74 -92 71 -37 -14 -25 -142
19 -214 53 -85 175 -126 273 -92 32 11 34 10 115 -70 67 -65 89 -81 114 -81
34 0 91 47 93 77 3 39 -5 50 -81 128 l-79 80 15 45 c42 121 -23 252 -148 296
-51 18 -142 19 -156 1z"/>
<path d="M1660 6421 c-14 -27 -13 -37 6 -55 14 -14 195 -16 1843 -16 1408 0
1830 3 1839 12 15 15 15 51 0 66 -9 9 -433 12 -1845 12 -1801 0 -1832 0 -1843
-19z"/>
<path d="M1734 6291 c-37 -16 -64 -60 -64 -105 0 -54 13 -71 86 -109 60 -33
82 -69 52 -88 -21 -14 -82 -10 -105 6 -20 14 -22 14 -27 -2 -2 -10 -7 -28 -11
-40 -5 -18 1 -24 40 -38 118 -46 231 30 211 141 -7 37 -32 59 -106 96 -52 27
-61 57 -19 72 19 6 35 5 56 -6 30 -15 31 -15 41 18 8 26 7 36 -5 46 -18 15
-120 21 -149 9z"/>
<path d="M4739 6277 c-95 -63 -108 -247 -24 -332 91 -90 236 -37 264 96 22
102 -15 211 -83 243 -49 23 -116 21 -157 -7z m130 -83 c26 -33 29 -130 6 -174
-35 -67 -111 -37 -122 48 -16 118 59 199 116 126z"/>
<path d="M1930 6271 c0 -11 -3 -26 -6 -35 -5 -13 2 -16 40 -16 l46 0 0 -155 0
-155 45 0 45 0 0 155 0 155 40 0 c39 0 40 1 40 35 l0 35 -125 0 c-117 0 -125
-1 -125 -19z"/>
<path d="M2220 6100 l0 -190 45 0 45 0 0 190 0 190 -45 0 -45 0 0 -190z"/>
<path d="M2390 6100 l0 -191 108 3 107 3 3 38 3 37 -65 0 -66 0 0 40 0 40 55
0 55 0 0 35 0 35 -55 0 -55 0 0 40 0 40 59 0 c61 0 71 7 71 51 0 18 -8 19
-110 19 l-110 0 0 -190z"/>
<path d="M2670 6099 l0 -191 98 4 c53 3 109 10 123 17 58 28 72 117 26 157
l-28 23 21 21 c32 32 27 94 -9 131 -29 28 -32 29 -130 29 l-101 0 0 -191z
m168 93 c5 -32 -15 -52 -49 -52 -27 0 -29 3 -29 41 l0 40 38 -3 c30 -2 38 -7
40 -26z m2 -136 c6 -8 10 -25 8 -38 -2 -19 -10 -23 -45 -26 l-43 -3 0 40 c0
40 1 41 34 41 18 0 39 -7 46 -14z"/>
<path d="M3000 6100 l0 -190 110 0 c110 0 110 0 110 24 0 13 3 31 6 40 5 14
-4 16 -65 16 l-71 0 0 40 0 40 60 0 60 0 0 35 0 35 -60 0 -60 0 0 40 0 40 65
0 65 0 0 35 0 35 -110 0 -110 0 0 -190z"/>
<path d="M3285 6103 l0 -188 98 -3 97 -3 0 41 0 40 -50 0 -50 0 0 150 0 150
-48 0 -47 0 0 -187z"/>
<path d="M3630 6100 l0 -190 99 0 99 0 6 31 c3 17 6 35 6 40 0 5 -27 9 -60 9
l-60 0 0 40 0 40 50 0 50 0 0 35 0 35 -50 0 -50 0 0 40 0 40 55 0 55 0 0 35 0
35 -100 0 -100 0 0 -190z"/>
<path d="M3897 6103 l2 -188 98 0 98 0 3 38 3 37 -55 0 -56 0 0 150 0 150 -47
0 -48 0 2 -187z"/>
<path d="M4080 6255 c0 -34 1 -35 40 -35 l40 0 0 -155 0 -155 45 0 45 0 0 155
0 155 40 0 c39 0 40 1 40 35 l0 35 -125 0 -125 0 0 -35z"/>
<path d="M4362 6103 l3 -188 43 -3 42 -3 0 76 c0 67 2 76 18 73 10 -2 31 -32
52 -75 l35 -73 43 0 c40 0 43 2 37 23 -4 12 -22 51 -41 86 -32 61 -33 65 -15
77 48 34 51 122 5 165 -23 21 -36 24 -125 27 l-99 4 2 -189z m152 101 c33 -32
13 -74 -36 -74 -27 0 -28 2 -28 45 0 41 2 45 24 45 14 0 32 -7 40 -16z"/>
<path d="M5040 6100 l0 -190 47 0 46 0 -6 112 -7 111 33 -54 c18 -30 50 -80
72 -112 36 -54 41 -58 74 -55 l36 3 3 188 2 187 -46 0 -46 0 4 -122 c2 -67 2
-115 0 -107 -3 8 -34 62 -69 122 l-64 107 -40 0 -39 0 0 -190z"/>
<path d="M1666 5834 c-19 -18 -20 -28 -6 -55 11 -19 42 -19 1843 -19 1412 0
1836 3 1845 12 15 15 15 51 0 66 -9 9 -431 12 -1839 12 -1648 0 -1829 -2
-1843 -16z"/>
<path d="M1660 3370 c0 -72 3 -90 14 -90 10 0 16 13 18 37 4 50 22 52 38 3 9
-27 19 -40 31 -40 17 0 17 2 2 37 -11 28 -12 42 -4 55 14 23 14 61 -1 76 -7 7
-31 12 -55 12 l-43 0 0 -90z m75 40 c0 -18 -6 -26 -22 -28 -20 -3 -23 1 -23
28 0 27 3 31 23 28 16 -2 22 -10 22 -28z"/>
<path d="M1800 3371 l0 -91 50 0 c38 0 50 4 50 15 0 10 -11 15 -35 15 -31 0
-35 3 -35 25 0 21 5 25 31 25 38 0 35 24 -4 28 -20 3 -27 9 -27 25 0 18 6 22
28 22 48 0 39 20 -10 23 l-48 3 0 -90z"/>
<path d="M1927 3453 c-4 -3 -7 -22 -7 -40 0 -31 4 -36 40 -50 27 -11 40 -22
38 -32 -4 -22 -46 -27 -54 -7 -6 16 -34 23 -34 8 0 -4 7 -18 16 -30 28 -41
104 -20 104 29 0 22 -33 59 -53 59 -19 0 -36 20 -30 36 8 21 41 17 48 -6 6
-20 20 -26 28 -12 3 4 1 17 -4 30 -7 17 -16 22 -47 22 -21 0 -42 -3 -45 -7z"/>
<path d="M2054 3373 l1 -88 48 -3 c37 -2 47 0 47 12 0 12 -10 16 -35 16 -31 0
-35 3 -35 25 0 21 5 25 30 25 20 0 30 5 30 15 0 10 -10 15 -31 15 -26 0 -30 3
-27 23 2 18 9 22 36 20 22 -1 32 3 32 13 0 10 -13 14 -48 14 l-48 0 0 -87z"/>
<path d="M2162 3448 c3 -7 13 -13 24 -13 17 0 19 -8 20 -75 2 -103 22 -105 26
-3 3 69 5 78 22 78 11 0 21 6 24 13 3 9 -13 12 -58 12 -45 0 -61 -3 -58 -12z"/>
<path d="M2641 3451 c-17 -11 -5 -32 14 -24 12 4 15 -8 15 -71 0 -61 3 -76 15
-76 12 0 15 17 15 90 0 87 -1 90 -22 90 -13 0 -29 -4 -37 -9z"/>
<path d="M2922 3448 c-16 -16 -15 -48 2 -48 7 0 16 9 19 21 3 12 12 19 19 17
25 -9 19 -44 -17 -90 -19 -26 -35 -52 -35 -58 0 -7 19 -10 53 -8 57 3 71 21
19 26 l-32 3 30 37 c47 57 37 112 -20 112 -14 0 -31 -5 -38 -12z"/>
<path d="M3450 3446 c-21 -26 -8 -60 33 -79 44 -22 52 -57 12 -57 -16 0 -25 6
-25 15 0 8 -7 15 -15 15 -18 0 -20 -31 -3 -48 7 -7 24 -12 38 -12 69 0 83 71
20 102 -38 19 -47 50 -17 56 12 3 20 -4 24 -17 3 -12 12 -21 19 -21 17 0 18
32 2 48 -17 17 -73 15 -88 -2z"/>
<path d="M3580 3370 c0 -73 3 -90 15 -90 12 0 15 17 15 90 0 73 -3 90 -15 90
-12 0 -15 -17 -15 -90z"/>
<path d="M3640 3370 c0 -73 3 -90 15 -90 12 0 15 14 16 63 l0 62 17 -44 c9
-24 22 -46 29 -48 6 -2 18 15 26 39 l15 43 1 -57 c1 -45 4 -58 16 -58 12 0 15
17 15 90 0 80 -2 90 -18 90 -13 0 -24 -15 -37 -52 l-18 -52 -20 52 c-14 37
-25 52 -38 52 -17 0 -19 -9 -19 -90z"/>
<path d="M4210 3370 l0 -90 50 0 c38 0 50 4 50 15 0 10 -11 15 -35 15 -31 0
-35 3 -35 25 0 21 5 25 31 25 38 0 35 24 -4 28 -21 3 -27 9 -27 28 0 23 4 25
32 22 19 -2 33 2 35 10 3 8 -10 12 -46 12 l-51 0 0 -90z"/>
<path d="M4320 3444 c0 -11 6 -14 20 -9 19 6 20 2 20 -74 0 -65 3 -81 15 -81
12 0 15 15 15 79 0 74 1 79 20 74 14 -4 20 0 20 11 0 13 -11 16 -55 16 -43 0
-55 -3 -55 -16z"/>
<path d="M4450 3370 c0 -73 3 -90 15 -90 11 0 15 11 15 40 0 36 3 40 24 40 21
0 25 -5 28 -37 2 -20 9 -38 16 -41 9 -3 12 19 12 87 0 77 -2 91 -16 91 -13 0
-15 -8 -12 -35 4 -33 2 -35 -24 -35 -25 0 -28 3 -28 35 0 24 -5 35 -15 35 -12
0 -15 -17 -15 -90z"/>
<path d="M4600 3369 l0 -90 47 3 c56 4 73 28 19 28 -31 0 -36 3 -36 24 0 19 6
25 25 28 14 2 26 8 26 13 0 6 -12 11 -26 13 -18 2 -25 9 -25 26 0 19 4 22 30
18 23 -3 30 0 30 12 0 12 -10 16 -45 16 l-45 0 0 -91z"/>
<path d="M4720 3370 c0 -73 3 -90 15 -90 11 0 15 11 15 40 0 22 5 40 11 40 6
0 18 -18 26 -40 9 -22 22 -40 30 -40 16 0 16 18 -1 49 -11 20 -11 28 2 51 13
23 14 33 4 54 -10 22 -18 26 -57 26 l-45 0 0 -90z m68 61 c21 -13 10 -46 -16
-49 -19 -3 -22 1 -22 27 0 31 13 39 38 22z"/>
<path d="M4860 3369 c0 -66 3 -90 12 -87 8 3 12 23 11 56 -1 29 0 52 2 52 2 0
18 -25 35 -55 47 -82 60 -74 60 35 0 72 -3 90 -15 90 -10 0 -15 -15 -17 -57
l-3 -58 -30 58 c-43 83 -55 76 -55 -34z"/>
<path d="M5010 3370 l0 -90 45 0 c33 0 45 4 45 15 0 10 -10 15 -30 15 -25 0
-30 4 -30 25 0 20 5 25 25 25 16 0 25 6 25 15 0 9 -9 15 -25 15 -20 0 -25 5
-25 26 0 23 3 26 30 22 20 -3 30 0 30 9 0 9 -14 13 -45 13 l-45 0 0 -90z"/>
<path d="M5113 3448 c2 -7 14 -12 25 -10 21 3 22 0 22 -77 0 -65 3 -81 15 -81
12 0 15 16 15 81 0 76 1 80 20 74 14 -5 20 -2 20 9 0 13 -12 16 -61 16 -44 0
-60 -3 -56 -12z"/>
<path d="M5608 3370 c12 -73 18 -90 32 -90 21 0 30 19 31 63 1 71 16 73 23 4
7 -62 10 -68 29 -65 22 3 24 8 41 131 6 38 4 47 -8 47 -11 0 -17 -18 -22 -72
-8 -78 -9 -77 -28 35 -5 27 -12 37 -26 37 -15 0 -20 -11 -26 -67 -6 -53 -9
-62 -15 -43 -4 14 -7 44 -8 68 -1 34 -5 42 -19 42 -18 0 -18 -4 -4 -90z"/>
<path d="M5807 3393 c-10 -38 -20 -78 -23 -90 -5 -17 -2 -23 9 -23 8 0 18 11
21 25 5 18 13 25 31 25 18 0 26 -7 31 -25 3 -14 12 -25 20 -25 18 0 18 -3 -8
96 -19 71 -25 84 -43 84 -17 0 -24 -11 -38 -67z m52 -25 c1 -10 -6 -18 -14
-18 -17 0 -18 4 -8 51 7 33 7 33 14 9 4 -14 7 -33 8 -42z"/>
<path d="M5930 3370 c0 -73 3 -90 15 -90 12 0 15 13 15 58 l0 57 33 -57 c46
-83 57 -77 57 32 0 73 -3 90 -15 90 -12 0 -15 -13 -15 -57 l-1 -58 -30 58
c-44 85 -59 77 -59 -33z"/>
<path d="M6370 3446 c-21 -26 -8 -60 33 -79 44 -22 52 -57 12 -57 -16 0 -25 6
-25 15 0 8 -7 15 -15 15 -18 0 -20 -31 -3 -48 17 -17 73 -15 87 2 23 28 9 70
-29 88 -38 19 -47 50 -17 56 12 3 20 -4 24 -17 3 -12 12 -21 19 -21 17 0 18
32 2 48 -17 17 -73 15 -88 -2z"/>
<path d="M6506 3405 c13 -31 24 -71 24 -90 0 -24 5 -35 15 -35 10 0 15 10 15
30 0 17 11 57 24 90 20 48 22 60 10 60 -8 0 -23 -19 -33 -42 l-18 -43 -13 43
c-9 29 -19 42 -31 42 -16 0 -16 -5 7 -55z"/>
<path d="M6630 3446 c-21 -26 -8 -60 33 -79 44 -22 52 -57 12 -57 -16 0 -25 6
-25 15 0 8 -7 15 -15 15 -22 0 -18 -37 4 -50 11 -5 31 -10 44 -10 59 0 64 74
7 102 -38 19 -47 50 -17 56 12 3 20 -4 24 -17 3 -12 12 -21 19 -21 17 0 18 32
2 48 -17 17 -73 15 -88 -2z"/>
<path d="M6740 3450 c0 -5 11 -10 25 -10 25 0 25 -1 25 -80 0 -64 3 -80 15
-80 12 0 15 16 15 81 0 76 1 80 20 74 14 -5 20 -2 20 9 0 13 -12 16 -60 16
-33 0 -60 -4 -60 -10z"/>
<path d="M6878 3370 l3 -90 45 0 c32 0 44 4 44 15 0 10 -10 15 -29 15 -23 0
-30 5 -33 25 -5 22 -2 25 23 25 19 0 29 5 29 15 0 10 -10 15 -28 15 -24 0 -28
4 -27 23 1 19 7 21 33 19 24 -3 32 1 32 12 0 12 -11 16 -47 16 l-48 0 3 -90z"/>
<path d="M6998 3370 c4 -102 22 -124 23 -27 l1 62 20 -47 c11 -27 24 -48 28
-48 4 0 15 17 23 38 l16 37 0 -52 c1 -40 5 -53 16 -53 12 0 15 17 15 91 0 79
-2 90 -17 87 -9 -2 -23 -22 -32 -45 -8 -24 -18 -43 -21 -43 -3 0 -12 19 -20
43 -10 28 -22 43 -35 45 -19 3 -20 -2 -17 -88z"/>
<path d="M7390 3370 c0 -73 3 -90 15 -90 11 0 15 11 15 40 0 37 2 40 28 40 35
0 52 16 52 50 0 37 -18 50 -67 50 l-43 0 0 -90z m75 40 c0 -18 -6 -26 -22 -28
-20 -3 -23 1 -23 28 0 27 3 31 23 28 16 -2 22 -10 22 -28z"/>
<path d="M7536 3444 c-11 -10 -16 -34 -16 -73 0 -65 18 -91 63 -91 35 0 57 34
57 90 0 25 -7 56 -16 68 -18 26 -65 30 -88 6z m63 -18 c7 -8 11 -36 9 -63 -3
-44 -5 -48 -28 -48 -23 0 -25 4 -28 48 -3 45 9 77 28 77 4 0 13 -6 19 -14z"/>
<path d="M7653 3448 c3 -8 11 -49 17 -92 12 -69 15 -77 34 -74 11 2 22 10 23
18 1 8 5 38 9 65 l7 50 11 -65 c9 -54 14 -65 31 -65 21 0 27 19 40 121 5 44 4
54 -8 54 -11 0 -17 -19 -23 -72 -4 -40 -9 -64 -11 -53 -22 116 -25 125 -43
125 -15 0 -19 -12 -25 -72 -9 -81 -12 -80 -23 7 -5 47 -11 60 -26 63 -13 3
-17 0 -13 -10z"/>
<path d="M7850 3370 l0 -90 50 0 c38 0 50 4 50 15 0 10 -11 15 -35 15 -31 0
-35 3 -35 25 0 21 5 25 30 25 20 0 30 5 30 15 0 10 -10 15 -31 15 -26 0 -30 3
-27 23 2 18 8 21 36 19 24 -3 32 0 32 12 0 12 -11 16 -50 16 l-50 0 0 -90z"/>
<path d="M7970 3370 c0 -72 3 -90 14 -90 10 0 16 13 18 35 4 46 19 47 41 1 28
-58 52 -40 25 19 -9 19 -9 28 0 37 16 16 15 61 0 76 -7 7 -31 12 -55 12 l-43
0 0 -90z m75 40 c0 -18 -6 -26 -22 -28 -20 -3 -23 1 -23 28 0 27 3 31 23 28
16 -2 22 -10 22 -28z"/>
</g>
</svg>
