<?xml version="1.0" standalone="no"?>
<!DOCTYPE svg PUBLIC "-//W3C//DTD SVG 20010904//EN"
 "http://www.w3.org/TR/2001/REC-SVG-20010904/DTD/svg10.dtd">
<svg version="1.0" xmlns="http://www.w3.org/2000/svg"
 width="796.000000pt" height="581.000000pt" viewBox="0 0 796.000000 581.000000"
 preserveAspectRatio="xMidYMid meet">

<g transform="translate(0.000000,581.000000) scale(0.100000,-0.100000)"
fill="#000000" stroke="none">
<path d="M0 2905 l0 -2905 3980 0 3980 0 0 2905 0 2905 -3980 0 -3980 0 0
-2905z m6166 1860 l16 -24 393 -3 394 -3 36 -35 c19 -19 40 -51 46 -72 6 -25
8 -604 5 -1754 -5 -1615 -7 -1719 -23 -1752 -10 -20 -31 -45 -46 -56 -32 -24
283 -22 -3562 -20 -1039 1 -1915 1 -1945 0 -30 0 -109 1 -175 3 -66 3 -161 3
-211 2 -112 -4 -147 11 -175 72 -18 41 -19 94 -19 1762 l0 1721 23 44 c16 33
34 51 67 68 l44 22 2364 0 2364 0 20 25 c19 25 20 25 193 25 174 0 175 0 191
-25z"/>
<path d="M1678 4492 l-538 -2 0 -1605 0 -1605 2845 0 2845 0 -2 1608 -3 1607
-2305 0 c-1268 0 -2547 -1 -2842 -3z m5140 -1599 l-3 -1598 -2830 0 -2830 0
-3 1592 -2 1593 1387 2 c764 2 2039 4 2836 6 l1447 3 -2 -1598z"/>
<path d="M5991 3919 c16 -30 -4 -48 -32 -31 -18 12 -20 11 -17 -5 2 -9 14 -23
27 -29 13 -7 47 -35 75 -63 53 -52 82 -63 93 -35 4 10 -13 35 -49 72 -30 31
-62 69 -71 85 -21 32 -43 38 -26 6z m134 -148 c7 -12 -12 -24 -25 -16 -11 7
-4 25 10 25 5 0 11 -4 15 -9z"/>
<path d="M6094 3897 l-29 -32 30 25 c17 14 32 26 34 28 2 1 2 4 -1 7 -2 3 -18
-10 -34 -28z"/>
<path d="M1803 3903 c136 -2 358 -2 495 0 136 1 24 2 -248 2 -272 0 -384 -1
-247 -2z"/>
<path d="M1571 3877 c-18 -18 -13 -35 17 -52 l27 -16 -28 4 c-18 3 -26 0 -24
-7 5 -16 46 -20 62 -6 18 15 3 50 -20 50 -8 0 -15 5 -15 10 0 6 14 10 30 10
28 0 30 -2 30 -40 0 -29 4 -40 15 -40 11 0 15 11 15 40 0 22 5 40 10 40 6 0
10 -18 10 -40 0 -29 4 -40 15 -40 11 0 15 12 15 49 l0 48 -74 1 c-42 0 -78 -4
-85 -11z"/>
<path d="M1747 3883 c-4 -3 -7 -26 -7 -50 0 -43 0 -43 35 -43 19 0 35 5 35 10
0 6 -9 10 -20 10 -11 0 -20 5 -20 10 0 6 7 10 15 10 21 0 19 17 -2 23 -15 4
-15 6 4 12 13 4 20 11 17 16 -6 10 -48 12 -57 2z"/>
<path d="M1820 3840 l0 -50 35 0 c35 0 36 1 34 38 -3 46 -14 62 -45 62 -22 0
-24 -4 -24 -50z m40 20 c0 -5 -5 -10 -11 -10 -5 0 -7 5 -4 10 3 6 8 10 11 10
2 0 4 -4 4 -10z m5 -40 c3 -5 -1 -10 -10 -10 -9 0 -13 5 -10 10 3 6 8 10 10
10 2 0 7 -4 10 -10z"/>
<path d="M1907 3883 c-4 -3 -7 -26 -7 -50 0 -43 0 -43 36 -43 21 0 33 4 29 10
-3 6 -13 10 -21 10 -8 0 -14 5 -14 10 0 6 7 10 15 10 8 0 15 5 15 10 0 6 -7
10 -15 10 -8 0 -15 5 -15 10 0 6 7 10 15 10 8 0 15 5 15 10 0 11 -43 14 -53 3z"/>
<path d="M1980 3841 c0 -50 1 -51 30 -51 17 0 30 5 30 10 0 6 -6 10 -14 10
-10 0 -16 13 -18 37 -5 59 -28 54 -28 -6z"/>
<path d="M2080 3840 c0 -49 1 -50 30 -50 35 0 40 17 8 23 l-23 4 23 8 c12 4
22 11 22 15 0 5 -10 11 -22 13 l-23 4 23 8 c32 11 27 25 -8 25 -29 0 -30 -1
-30 -50z"/>
<path d="M2150 3841 c0 -50 1 -51 30 -51 17 0 30 5 30 10 0 6 -6 10 -14 10
-10 0 -16 13 -18 37 -5 59 -28 54 -28 -6z"/>
<path d="M2195 3880 c-3 -4 2 -10 10 -14 9 -3 15 -19 15 -41 0 -46 18 -45 22
2 4 52 28 56 28 4 0 -30 4 -41 15 -41 9 0 15 9 16 23 l0 22 16 -22 c20 -29 49
-32 33 -4 -5 11 -7 27 -4 35 12 31 -14 45 -82 45 -35 0 -66 -4 -69 -9z m125
-20 c0 -5 -4 -10 -10 -10 -5 0 -10 5 -10 10 0 6 5 10 10 10 6 0 10 -4 10 -10z"/>
<path d="M2372 3878 c-7 -7 -12 -24 -12 -38 0 -31 17 -50 45 -50 28 0 45 19
45 50 0 31 -17 50 -45 50 -12 0 -26 -5 -33 -12z m52 -51 c-3 -9 -13 -17 -20
-17 -21 0 -29 27 -13 46 10 13 14 13 26 1 8 -7 11 -21 7 -30z"/>
<path d="M2467 3883 c-4 -3 -7 -26 -7 -50 0 -32 4 -43 15 -43 9 0 15 9 15 23
l1 22 18 -22 c29 -35 41 -28 41 21 0 50 -16 69 -29 35 l-8 -23 -12 22 c-12 22
-22 27 -34 15z"/>
<path d="M3035 3810 c3 -5 8 -10 11 -10 2 0 4 5 4 10 0 6 -5 10 -11 10 -5 0
-7 -4 -4 -10z"/>
<path d="M5955 3788 c-24 -28 -25 -32 -11 -47 15 -14 19 -13 48 16 27 27 29
34 18 47 -18 22 -25 20 -55 -16z"/>
<path d="M1565 3770 c4 -6 178 -10 491 -10 316 0 484 3 484 10 0 7 -170 10
-491 10 -324 0 -488 -3 -484 -10z"/>
<path d="M1363 1476 c1 -11 9 -21 17 -23 10 -3 11 -2 4 4 -6 4 -14 15 -17 23
-5 11 -6 9 -4 -4z"/>
<path d="M2926 1475 c-3 -8 -1 -15 4 -15 6 0 10 7 10 15 0 8 -2 15 -4 15 -2 0
-6 -7 -10 -15z"/>
<path d="M3531 1468 c-1 -21 3 -26 15 -21 9 3 11 9 6 12 -5 3 -12 13 -15 21
-3 9 -6 4 -6 -12z"/>
<path d="M3592 1455 c0 -22 2 -32 5 -22 3 10 11 16 18 13 13 -5 30 22 20 32
-3 3 -5 0 -5 -6 0 -19 -28 -14 -33 6 -3 9 -5 -1 -5 -23z"/>
<path d="M3660 1474 c0 -8 5 -12 10 -9 6 4 8 11 5 16 -9 14 -15 11 -15 -7z"/>
<path d="M4480 1480 c0 -5 5 -10 11 -10 5 0 7 5 4 10 -3 6 -8 10 -11 10 -2 0
-4 -4 -4 -10z"/>
<path d="M4531 1463 c1 -18 3 -21 6 -10 3 10 9 14 16 10 7 -4 6 1 -2 10 -18
23 -21 22 -20 -10z"/>
<path d="M5781 1458 c0 -18 3 -27 6 -20 2 6 13 12 24 12 20 0 26 24 9 35 -6 3
-7 -1 -4 -9 4 -11 0 -16 -11 -16 -11 0 -15 5 -11 15 3 8 1 15 -4 15 -6 0 -10
-15 -9 -32z"/>
<path d="M5856 1481 c-4 -5 3 -7 14 -4 23 6 26 13 6 13 -8 0 -17 -4 -20 -9z"/>
<path d="M6018 1483 c6 -2 18 -2 25 0 6 3 1 5 -13 5 -14 0 -19 -2 -12 -5z"/>
<path d="M6106 1476 c6 -16 4 -18 -14 -14 -15 4 -22 2 -22 -8 0 -8 6 -11 15
-8 9 4 15 0 16 -7 0 -8 5 -3 10 10 6 17 6 28 -1 35 -8 8 -9 6 -4 -8z"/>
<path d="M1905 1472 c-15 -11 -16 -29 -2 -35 7 -3 12 5 12 19 0 13 0 24 0 24
0 0 -4 -4 -10 -8z"/>
<path d="M2880 1473 c1 -14 28 -44 32 -36 3 4 -3 16 -14 26 -10 9 -18 14 -18
10z"/>
<path d="M3500 1470 c0 -5 -10 -11 -22 -11 -21 -1 -21 -2 -3 -6 11 -3 23 -10
27 -17 4 -6 8 1 8 17 0 15 -2 27 -5 27 -3 0 -5 -4 -5 -10z"/>
<path d="M5408 1473 c6 -2 18 -2 25 0 6 3 1 5 -13 5 -14 0 -19 -2 -12 -5z"/>
<path d="M5940 1470 c0 -5 5 -10 10 -10 6 0 10 5 10 10 0 6 -4 10 -10 10 -5 0
-10 -4 -10 -10z"/>
<path d="M1231 1440 c1 -18 3 -20 6 -7 3 10 11 16 18 13 7 -2 15 1 18 7 3 7
-5 12 -19 12 -19 0 -24 -5 -23 -25z"/>
<path d="M1300 1446 c0 -31 6 -34 13 -6 3 11 1 23 -4 26 -5 3 -9 -6 -9 -20z"/>
<path d="M2120 1455 c0 -8 5 -15 10 -15 6 0 10 7 10 15 0 8 -4 15 -10 15 -5 0
-10 -7 -10 -15z"/>
<path d="M4400 1451 c0 -11 4 -22 9 -25 4 -3 6 6 3 19 -5 30 -12 33 -12 6z"/>
<path d="M4581 1457 c-1 -12 -5 -16 -13 -11 -8 5 -7 0 2 -11 14 -16 15 -17 18
-1 2 9 1 22 -1 29 -3 7 -6 4 -6 -6z"/>
<path d="M5891 1454 c0 -11 3 -14 6 -6 3 7 2 16 -1 19 -3 4 -6 -2 -5 -13z"/>
<path d="M3691 1443 c7 -10 15 -20 16 -22 2 -2 3 3 3 11 0 9 -7 19 -16 22 -15
6 -15 4 -3 -11z"/>
<path d="M4467 1441 c-4 -17 -3 -21 5 -13 5 5 8 16 6 23 -3 8 -7 3 -11 -10z"/>
<path d="M6018 1453 c7 -3 16 -2 19 1 4 3 -2 6 -13 5 -11 0 -14 -3 -6 -6z"/>
<path d="M4500 1441 c0 -6 4 -13 10 -16 6 -3 7 1 4 9 -7 18 -14 21 -14 7z"/>
<path d="M5920 1434 c0 -8 5 -12 10 -9 6 3 10 10 10 16 0 5 -4 9 -10 9 -5 0
-10 -7 -10 -16z"/>
<path d="M5960 1434 c0 -8 5 -12 10 -9 6 3 10 10 10 16 0 5 -4 9 -10 9 -5 0
-10 -7 -10 -16z"/>
<path d="M5300 1429 c0 -5 5 -7 10 -4 6 3 10 8 10 11 0 2 -4 4 -10 4 -5 0 -10
-5 -10 -11z"/>
<path d="M5368 1433 c7 -3 16 -2 19 1 4 3 -2 6 -13 5 -11 0 -14 -3 -6 -6z"/>
<path d="M5418 1433 c7 -3 16 -2 19 1 4 3 -2 6 -13 5 -11 0 -14 -3 -6 -6z"/>
</g>
</svg>
